:version 1.10
:name ASF
:units
  mass 1
  length 1
  angle deg
:documentation
  ASF file generated by Kaydara
:root
  axis xyz
  order  tx ty tz rx ry rz
  position 0 0 0
  orientation 0 0 0
:bonedata
  begin
    id 1
    name RightUpLegDummy
    direction -1 2.30186e-007 8.31532e-007
    length 4.04083
    axis 0 0 0 xyz
  end
  begin
    id 2
    name RightUpLeg
    direction -0.000919234 -0.999985 0.00544864
    length 17.4221
    axis -3.80308 -0.00076134 -0.0523649 xyz
    dof rx ry rz
  end
  begin
    id 3
    name RightLeg
    direction -0.000919271 -0.999984 -0.00555045
    length 17.1239
    axis 4.00314 0.0181274 -0.183583 xyz
    dof rx ry rz
  end
  begin
    id 4
    name RightFoot
    direction -2.57843e-005 -4.04509e-007 1
    length 6.72091
    axis 8.18909e-005 -0.122003 -0.403008 xyz
    dof rx ry rz
  end
  begin
    id 5
    name RightToes
    direction 0.00116825 -0.014069 0.9999
    length 3.85082
    axis 0.000514414 0.540638 -0.356797 xyz
    dof rx ry rz
  end
  begin
    id 6
    name SpineDummy
    direction 0.0168869 0.966876 -0.254689
    length 6.99894
    axis 0 0 0 xyz
  end
  begin
    id 7
    name Spine
    direction -0.0132008 0.999903 0.00446247
    length 11.1999
    axis -0.00148109 0.00725429 0.756411 xyz
    dof rx ry rz
  end
  begin
    id 8
    name Spine1
    direction 0 0 0
    length 0
    axis -0.000934958 0.0245693 1.46543 xyz
    dof rx ry rz
  end
  begin
    id 9
    name HEadDummy
    direction -0.0255732 0.999672 0.00128215
    length 3.43865
    axis -0.000934958 0.0245693 1.46543 xyz
  end
  begin
    id 10
    name HEad
    direction -0.0472656 0.980052 0.19304
    length 5.12695
    axis -0.000934954 0.0245693 1.46543 xyz
    dof rx ry rz
  end
  begin
    id 11
    name LeftShoulder1Dummy
    direction 0.953098 0.301717 -0.023914
    length 3.68488
    axis -0.000934958 0.0245693 1.46543 xyz
  end
  begin
    id 12
    name LeftShoulder1
    direction 0.962466 0.271167 0.0112566
    length 3.13809
    axis -0.000934958 0.0245693 1.46543 xyz
    dof rx ry rz
  end
  begin
    id 13
    name LeftArm
    direction 0.999943 0.00455037 -0.00961766
    length 11.3419
    axis -23.1648 0.685459 1.22814 xyz
    dof rx ry rz
  end
  begin
    id 14
    name LeftForeArm
    direction 0.999332 0.0131969 0.0340885
    length 8.70632
    axis -9.90633 0.618216 0.0826942 xyz
    dof rx ry rz
  end
  begin
    id 15
    name LeftHand
    direction 0.994373 -0.0366703 0.0993905
    length 5.32135
    axis 0.00675269 0.680415 0.445699 xyz
    dof rx ry rz
  end
  begin
    id 16
    name RightShoulderDummy
    direction -0.967298 0.252589 -0.0230903
    length 3.68488
    axis -0.000934958 0.0245693 1.46543 xyz
  end
  begin
    id 17
    name RightShoulder
    direction -0.975062 0.221602 0.0120823
    length 3.13809
    axis 0.216257 0.0246515 1.45863 xyz
    dof rx ry rz
  end
  begin
    id 18
    name RightArm
    direction -0.99886 -0.00851186 -0.0469687
    length 10.3947
    axis -23.196 0.23503 -0.532632 xyz
    dof rx ry rz
  end
  begin
    id 19
    name RightForeArm
    direction -0.99909 0.00114866 0.0426317
    length 8.68355
    axis -9.91764 -0.134943 0.610517 xyz
    dof rx ry rz
  end
  begin
    id 20
    name RightHand
    direction -0.992888 -0.0489538 0.10852
    length 5.28593
    axis -0.00275396 -0.197403 0.246414 xyz
    dof rx ry rz
  end
  begin
    id 21
    name LeftUpLegDummy
    direction 1 -2.30186e-007 -8.31532e-007
    length 4.04083
    axis 0 0 0 xyz
  end
  begin
    id 22
    name LeftUpLeg
    direction -0.000920097 -1 2.79241e-006
    length 17.4221
    axis -3.48782 0.00143434 -0.0532288 xyz
    dof rx ry rz
  end
  begin
    id 23
    name LeftLeg
    direction -0.000920097 -1 2.7912e-006
    length 17.1239
    axis 3.68162 -0.00806512 -0.0529896 xyz
    dof rx ry rz
  end
  begin
    id 24
    name LeftFoot
    direction -2.57845e-005 -3.987e-007 1
    length 6.72091
    axis 3.02372e-005 -0.00147829 -0.214229 xyz
    dof rx ry rz
  end
  begin
    id 25
    name LeftToes
    direction 0.00813577 -0.00488255 0.999955
    length 3.85048
    axis 3.89895e-005 -0.0014783 -0.214229 xyz
    dof rx ry rz
  end
:hierarchy
  begin
    root RightUpLegDummy SpineDummy LeftUpLegDummy
    RightUpLegDummy RightUpLeg
    RightUpLeg RightLeg
    RightLeg RightFoot
    RightFoot RightToes
    SpineDummy Spine
    Spine Spine1
    Spine1 HEadDummy LeftShoulder1Dummy RightShoulderDummy
    HEadDummy HEad
    LeftShoulder1Dummy LeftShoulder1
    LeftShoulder1 LeftArm
    LeftArm LeftForeArm
    LeftForeArm LeftHand
    RightShoulderDummy RightShoulder
    RightShoulder RightArm
    RightArm RightForeArm
    RightForeArm RightHand
    LeftUpLegDummy LeftUpLeg
    LeftUpLeg LeftLeg
    LeftLeg LeftFoot
    LeftFoot LeftToes
  end

:SAMPLES-PER-SECOND 30
:FULLY-SPECIFIED
:DEGREES
62
root  -53.8855 34.7506 31.1441 -169.437 55.9292 -178.621
RightUpLeg  -7.98619 -14.3832 0.338733
RightLeg  6.15432 -0.755142 -0.0314597
RightFoot  2.95449 0.0115657 0.101216
RightToes  -21.106 -0.0906076 -0.193048
Spine  -2.54161 -0.265475 0.541903
Spine1  -5.16206 -0.468902 1.67676
HEad  -65.3204 -14.0606 4.29249
LeftShoulder1  -1.94126e-019 -3.10601e-018 -2.51263e-017
LeftArm  -8.80021 25.1921 -83.7582
LeftForeArm  32.7092 -16.4186 -2.68575
LeftHand  -0.322834 -0.899268 6.21688
RightShoulder  -4.96962e-017 0 -2.36833e-017
RightArm  -27.4992 -25.6572 77.9646
RightForeArm  56.7349 13.9111 1.26161
RightHand  -0.328504 -1.0936 -8.80004
LeftUpLeg  -7.9177 4.87722 2.77173
LeftLeg  6.37368 14.6225 0.679156
LeftFoot  5.18426 -0.0586172 1.46443
LeftToes  -21.5601 1.48321e-006 1.01846e-007
63
root  -53.9117 34.7539 31.1545 -169.476 55.7936 -178.716
RightUpLeg  -8.08903 -14.4696 0.306344
RightLeg  6.21991 -0.804171 -0.034491
RightFoot  2.93592 0.0116549 0.0999414
RightToes  -21.1301 -0.0906076 -0.193048
Spine  -2.51964 -0.219387 0.475461
Spine1  -5.11747 -0.379102 1.54044
HEad  -65.5038 -14.1593 4.45382
LeftShoulder1  -1.94126e-019 -3.10601e-018 -2.51263e-017
LeftArm  -8.79478 25.1667 -83.6371
LeftForeArm  32.9144 -16.6254 -2.72529
LeftHand  -0.323198 -0.934551 6.19948
RightShoulder  -4.96962e-017 0 -2.36833e-017
RightArm  -27.3581 -25.6414 78.0673
RightForeArm  56.7772 13.8945 1.26341
RightHand  -0.327696 -1.13085 -8.85081
LeftUpLeg  -8.02765 4.86003 2.7114
LeftLeg  6.36433 14.5172 0.672017
LeftFoot  5.25802 -0.0594421 1.47303
LeftToes  -21.5286 1.48321e-006 1.01846e-007
64
root  -53.9283 34.7412 31.1716 -169.424 55.6699 -178.668
RightUpLeg  -8.27797 -14.5434 0.360301
RightLeg  6.53215 -0.828068 -0.0400563
RightFoot  2.80157 0.0117432 0.0986794
RightToes  -21.0535 -0.0906076 -0.193048
Spine  -2.50791 -0.263895 0.308982
Spine1  -5.09868 -0.466643 1.18666
HEad  -65.5882 -13.9691 5.0845
LeftShoulder1  -1.94126e-019 -3.10601e-018 -2.51263e-017
LeftArm  -8.84212 25.3758 -83.0762
LeftForeArm  33.1506 -17.6681 -2.93436
LeftHand  -0.322014 -0.94508 6.28549
RightShoulder  -4.96962e-017 0 -2.36833e-017
RightArm  -26.7426 -25.6946 78.5072
RightForeArm  56.3244 14.044 1.24854
RightHand  -0.321304 -1.12662 -8.66731
LeftUpLeg  -8.23058 4.87941 2.75491
LeftLeg  6.64021 14.3793 0.734392
LeftFoot  5.14087 -0.0566612 1.42531
LeftToes  -21.5618 1.48321e-006 1.01846e-007
65
root  -53.9508 34.7579 31.1825 -169.44 55.6448 -178.734
RightUpLeg  -8.20965 -14.5823 0.339953
RightLeg  6.22951 -0.830683 -0.0352911
RightFoot  2.96906 0.0118309 0.0974266
RightToes  -21.1216 -0.0906076 -0.193048
Spine  -2.45518 -0.159847 0.453481
Spine1  -4.98824 -0.256398 1.49439
HEad  -65.8544 -14.1273 4.54036
LeftShoulder1  -1.94126e-019 -3.10601e-018 -2.51263e-017
LeftArm  -8.79734 25.0495 -83.5622
LeftForeArm  32.9106 -16.6202 -2.71887
LeftHand  -0.324074 -0.954726 6.21209
RightShoulder  -4.96962e-017 0 -2.36833e-017
RightArm  -27.0419 -25.4728 78.0718
RightForeArm  56.686 13.9797 1.25275
RightHand  -0.325899 -1.16543 -8.86981
LeftUpLeg  -8.15214 4.85546 2.70528
LeftLeg  6.29303 14.3931 0.648636
LeftFoot  5.34479 -0.0607479 1.48407
LeftToes  -21.5162 1.48321e-006 1.01846e-007
66
root  -53.975 34.7677 31.1992 -169.401 55.6404 -178.772
RightUpLeg  -8.27517 -14.5934 0.34806
RightLeg  6.12395 -0.815187 -0.0336156
RightFoot  3.02794 0.0119181 0.0961798
RightToes  -21.113 -0.0906076 -0.193048
Spine  -2.41591 -0.0810123 0.530011
Spine1  -4.90691 -0.0960841 1.65761
HEad  -66.0527 -14.1453 4.25989
LeftShoulder1  -1.94126e-019 -3.10601e-018 -2.51263e-017
LeftArm  -8.84222 24.8099 -83.8324
LeftForeArm  32.7652 -15.9696 -2.5949
LeftHand  -0.324425 -0.908856 6.23254
RightShoulder  -4.96962e-017 0 -2.36833e-017
RightArm  -27.1255 -25.2687 77.8228
RightForeArm  56.8269 13.9728 1.25189
RightHand  -0.331945 -1.0981 -8.90245
LeftUpLeg  -8.17208 4.81726 2.67559
LeftLeg  6.09108 14.4383 0.600217
LeftFoot  5.4528 -0.0633454 1.51938
LeftToes  -21.5099 1.48321e-006 1.01846e-007
